<svg width="100" height="100" viewBox="0 0 100 100" fill="none" xmlns="http://www.w3.org/2000/svg">
<rect width="100" height="100" transform="translate(0 0.000244141)" fill="#FCBA5A"/>
<g clip-path="url(#clip0_601_14)">
<path d="M56.875 26.6669H35.2083C33.75 26.6669 32.7083 27.7085 32.7083 29.1669V70.8335C32.7083 72.2919 33.9583 73.5419 35.4167 73.5419H64.7917C66.25 73.5419 67.5 72.2919 67.5 70.8335V37.0835C67.5 36.4585 67.2917 35.6252 66.6667 35.2085L58.9583 27.5002C58.3333 26.8752 57.7083 26.6669 56.875 26.6669Z" stroke="#6F2282" stroke-width="3" stroke-miterlimit="10" stroke-linecap="round" stroke-linejoin="round"/>
<path d="M66.25 36.8752H59.5833C58.125 36.8752 56.875 35.6252 56.875 34.1668V27.7085" stroke="#6F2282" stroke-width="3" stroke-miterlimit="10" stroke-linejoin="round"/>
<path d="M39.7917 62.5002H60.2084" stroke="#6F2282" stroke-width="3" stroke-miterlimit="10" stroke-linecap="round" stroke-linejoin="round"/>
<path d="M39.7917 54.7919H60.2084" stroke="#6F2282" stroke-width="3" stroke-miterlimit="10" stroke-linecap="round" stroke-linejoin="round"/>
<path d="M39.7917 47.0835H60.2084" stroke="#6F2282" stroke-width="3" stroke-miterlimit="10" stroke-linecap="round" stroke-linejoin="round"/>
</g>
<defs>
<clipPath id="clip0_601_14">
<rect width="50" height="50" fill="white" transform="translate(25 25.0002)"/>
</clipPath>
</defs>
</svg>
